<mxfile host="app.diagrams.net" modified="2023-06-03T14:26:04.590Z" agent="Mozilla/5.0 (Macintosh; Intel Mac OS X 10_15_7) AppleWebKit/537.36 (KHTML, like Gecko) Chrome/112.0.0.0 Safari/537.36" etag="kAfDIbEs0hO2P2MVwTMc" version="21.3.6" type="github">
  <diagram name="Page-1" id="e7e014a7-5840-1c2e-5031-d8a46d1fe8dd">
    <mxGraphModel dx="954" dy="559" grid="1" gridSize="10" guides="1" tooltips="1" connect="1" arrows="1" fold="1" page="1" pageScale="1" pageWidth="1169" pageHeight="826" background="none" math="0" shadow="0">
      <root>
        <mxCell id="0" />
        <mxCell id="1" parent="0" />
        <mxCell id="3" value="Driver" style="swimlane;whiteSpace=wrap" parent="1" vertex="1">
          <mxGeometry x="445" y="128" width="280" height="662" as="geometry" />
        </mxCell>
        <mxCell id="98_nirPGDP6k1_eJu0Is-47" value="Driver" style="shape=umlActor;verticalLabelPosition=bottom;verticalAlign=top;html=1;outlineConnect=0;" vertex="1" parent="3">
          <mxGeometry x="65.5" y="47" width="24.5" height="53" as="geometry" />
        </mxCell>
        <mxCell id="98_nirPGDP6k1_eJu0Is-55" value="weight_waste" style="whiteSpace=wrap;html=1;verticalAlign=top;" vertex="1" parent="3">
          <mxGeometry x="100" y="152" width="80" height="29.5" as="geometry" />
        </mxCell>
        <mxCell id="98_nirPGDP6k1_eJu0Is-69" value="" style="edgeStyle=orthogonalEdgeStyle;rounded=0;orthogonalLoop=1;jettySize=auto;html=1;" edge="1" parent="3" source="98_nirPGDP6k1_eJu0Is-61" target="98_nirPGDP6k1_eJu0Is-68">
          <mxGeometry relative="1" as="geometry" />
        </mxCell>
        <mxCell id="98_nirPGDP6k1_eJu0Is-61" value="Is&lt;br&gt;Car&lt;br&gt;Full" style="rhombus;whiteSpace=wrap;html=1;verticalAlign=top;" vertex="1" parent="3">
          <mxGeometry x="80.5" y="280.63" width="120" height="65.25" as="geometry" />
        </mxCell>
        <mxCell id="98_nirPGDP6k1_eJu0Is-68" value="Is&lt;br&gt;All Bin&lt;br&gt;Empty" style="rhombus;whiteSpace=wrap;html=1;verticalAlign=top;" vertex="1" parent="3">
          <mxGeometry x="80.5" y="382" width="120" height="65.25" as="geometry" />
        </mxCell>
        <mxCell id="98_nirPGDP6k1_eJu0Is-73" value="False" style="text;html=1;strokeColor=none;fillColor=none;align=center;verticalAlign=middle;whiteSpace=wrap;rounded=0;" vertex="1" parent="3">
          <mxGeometry x="135.5" y="345.88" width="60" height="30" as="geometry" />
        </mxCell>
        <mxCell id="98_nirPGDP6k1_eJu0Is-79" value="SendPosition" style="whiteSpace=wrap;html=1;verticalAlign=top;" vertex="1" parent="3">
          <mxGeometry x="100.5" y="556" width="80" height="29.5" as="geometry" />
        </mxCell>
        <mxCell id="98_nirPGDP6k1_eJu0Is-81" value="True" style="text;html=1;strokeColor=none;fillColor=none;align=center;verticalAlign=middle;whiteSpace=wrap;rounded=0;" vertex="1" parent="3">
          <mxGeometry x="135.5" y="462" width="60" height="30" as="geometry" />
        </mxCell>
        <mxCell id="98_nirPGDP6k1_eJu0Is-84" value="" style="endArrow=classic;html=1;rounded=0;entryX=1;entryY=0.5;entryDx=0;entryDy=0;" edge="1" parent="3" target="98_nirPGDP6k1_eJu0Is-51">
          <mxGeometry width="50" height="50" relative="1" as="geometry">
            <mxPoint x="200.5" y="414.13" as="sourcePoint" />
            <mxPoint x="415.5" y="112" as="targetPoint" />
            <Array as="points">
              <mxPoint x="505.5" y="412" />
              <mxPoint x="505.5" y="74" />
            </Array>
          </mxGeometry>
        </mxCell>
        <mxCell id="98_nirPGDP6k1_eJu0Is-85" value="False" style="text;html=1;strokeColor=none;fillColor=none;align=center;verticalAlign=middle;whiteSpace=wrap;rounded=0;" vertex="1" parent="3">
          <mxGeometry x="200.5" y="392" width="60" height="30" as="geometry" />
        </mxCell>
        <mxCell id="4" value="Bin" style="swimlane;whiteSpace=wrap" parent="1" vertex="1">
          <mxGeometry x="724.5" y="128" width="280" height="662" as="geometry" />
        </mxCell>
        <mxCell id="98_nirPGDP6k1_eJu0Is-54" value="" style="edgeStyle=orthogonalEdgeStyle;rounded=0;orthogonalLoop=1;jettySize=auto;html=1;" edge="1" parent="4" source="98_nirPGDP6k1_eJu0Is-51" target="98_nirPGDP6k1_eJu0Is-53">
          <mxGeometry relative="1" as="geometry" />
        </mxCell>
        <mxCell id="98_nirPGDP6k1_eJu0Is-51" value="Login In" style="whiteSpace=wrap;html=1;verticalAlign=top;" vertex="1" parent="4">
          <mxGeometry x="102.75" y="60" width="74.5" height="27" as="geometry" />
        </mxCell>
        <mxCell id="98_nirPGDP6k1_eJu0Is-53" value="Record" style="whiteSpace=wrap;html=1;verticalAlign=top;" vertex="1" parent="4">
          <mxGeometry x="100" y="152" width="80" height="29.5" as="geometry" />
        </mxCell>
        <mxCell id="98_nirPGDP6k1_eJu0Is-46" value="" style="edgeStyle=orthogonalEdgeStyle;rounded=0;orthogonalLoop=1;jettySize=auto;html=1;" edge="1" parent="1" source="30">
          <mxGeometry relative="1" as="geometry">
            <mxPoint x="639.5" y="583" as="targetPoint" />
          </mxGeometry>
        </mxCell>
        <mxCell id="98_nirPGDP6k1_eJu0Is-52" value="" style="edgeStyle=orthogonalEdgeStyle;rounded=0;orthogonalLoop=1;jettySize=auto;html=1;strokeColor=#FF0000;" edge="1" parent="1" source="98_nirPGDP6k1_eJu0Is-47" target="98_nirPGDP6k1_eJu0Is-51">
          <mxGeometry relative="1" as="geometry" />
        </mxCell>
        <mxCell id="98_nirPGDP6k1_eJu0Is-56" value="" style="edgeStyle=orthogonalEdgeStyle;rounded=0;orthogonalLoop=1;jettySize=auto;html=1;strokeColor=#FF0000;" edge="1" parent="1" source="98_nirPGDP6k1_eJu0Is-53" target="98_nirPGDP6k1_eJu0Is-55">
          <mxGeometry relative="1" as="geometry" />
        </mxCell>
        <mxCell id="2" value="Waste Food" style="swimlane;whiteSpace=wrap" parent="1" vertex="1">
          <mxGeometry x="129" y="128" width="315.5" height="662" as="geometry" />
        </mxCell>
        <mxCell id="98_nirPGDP6k1_eJu0Is-57" value="Generate &lt;br&gt;wf_collection_batch" style="whiteSpace=wrap;html=1;verticalAlign=top;" vertex="1" parent="2">
          <mxGeometry x="60" y="142.75" width="120" height="48" as="geometry" />
        </mxCell>
        <mxCell id="98_nirPGDP6k1_eJu0Is-66" value="" style="edgeStyle=orthogonalEdgeStyle;rounded=0;orthogonalLoop=1;jettySize=auto;html=1;" edge="1" parent="2" source="98_nirPGDP6k1_eJu0Is-63" target="98_nirPGDP6k1_eJu0Is-65">
          <mxGeometry relative="1" as="geometry" />
        </mxCell>
        <mxCell id="98_nirPGDP6k1_eJu0Is-63" value="Generate&lt;br&gt;wf__batch_mix" style="whiteSpace=wrap;html=1;verticalAlign=top;" vertex="1" parent="2">
          <mxGeometry x="60" y="289.26" width="120" height="48" as="geometry" />
        </mxCell>
        <mxCell id="98_nirPGDP6k1_eJu0Is-65" value="Generate&lt;br&gt;batch_mix_weight" style="whiteSpace=wrap;html=1;verticalAlign=top;" vertex="1" parent="2">
          <mxGeometry x="60" y="402" width="120" height="48" as="geometry" />
        </mxCell>
        <mxCell id="98_nirPGDP6k1_eJu0Is-67" value="True" style="text;html=1;strokeColor=none;fillColor=none;align=center;verticalAlign=middle;whiteSpace=wrap;rounded=0;" vertex="1" parent="2">
          <mxGeometry x="241" y="285" width="60" height="30" as="geometry" />
        </mxCell>
        <mxCell id="98_nirPGDP6k1_eJu0Is-78" value="" style="edgeStyle=orthogonalEdgeStyle;rounded=0;orthogonalLoop=1;jettySize=auto;html=1;entryX=0;entryY=0.5;entryDx=0;entryDy=0;" edge="1" parent="2" target="98_nirPGDP6k1_eJu0Is-79">
          <mxGeometry relative="1" as="geometry">
            <mxPoint x="119.5" y="452" as="sourcePoint" />
            <mxPoint x="411" y="572" as="targetPoint" />
            <Array as="points">
              <mxPoint x="120" y="571" />
            </Array>
          </mxGeometry>
        </mxCell>
        <mxCell id="98_nirPGDP6k1_eJu0Is-75" value="" style="endArrow=classic;html=1;rounded=0;entryX=0;entryY=0.5;entryDx=0;entryDy=0;" edge="1" parent="2">
          <mxGeometry width="50" height="50" relative="1" as="geometry">
            <mxPoint x="456" y="449.25" as="sourcePoint" />
            <mxPoint x="61.5" y="315" as="targetPoint" />
            <Array as="points">
              <mxPoint x="456" y="504" />
              <mxPoint x="32" y="504" />
              <mxPoint x="32" y="394" />
              <mxPoint x="32" y="315" />
            </Array>
          </mxGeometry>
        </mxCell>
        <mxCell id="98_nirPGDP6k1_eJu0Is-58" value="" style="edgeStyle=orthogonalEdgeStyle;rounded=0;orthogonalLoop=1;jettySize=auto;html=1;strokeColor=#FF0000;" edge="1" parent="1" source="98_nirPGDP6k1_eJu0Is-55" target="98_nirPGDP6k1_eJu0Is-57">
          <mxGeometry relative="1" as="geometry" />
        </mxCell>
        <mxCell id="98_nirPGDP6k1_eJu0Is-62" value="" style="edgeStyle=orthogonalEdgeStyle;rounded=0;orthogonalLoop=1;jettySize=auto;html=1;" edge="1" parent="1" source="98_nirPGDP6k1_eJu0Is-57" target="98_nirPGDP6k1_eJu0Is-61">
          <mxGeometry relative="1" as="geometry">
            <Array as="points">
              <mxPoint x="285" y="360" />
              <mxPoint x="585" y="360" />
            </Array>
          </mxGeometry>
        </mxCell>
        <mxCell id="98_nirPGDP6k1_eJu0Is-64" value="" style="edgeStyle=orthogonalEdgeStyle;rounded=0;orthogonalLoop=1;jettySize=auto;html=1;" edge="1" parent="1" source="98_nirPGDP6k1_eJu0Is-61" target="98_nirPGDP6k1_eJu0Is-63">
          <mxGeometry relative="1" as="geometry" />
        </mxCell>
      </root>
    </mxGraphModel>
  </diagram>
</mxfile>
